<svg id="Layer_1" data-name="Layer 1" xmlns="http://www.w3.org/2000/svg" xmlns:xlink="http://www.w3.org/1999/xlink" viewBox="0 0 202.5 210.39"><defs><style>.cls-1{fill:none;}.cls-2{fill:#efeff4;}.cls-3{clip-path:url(#clip-path);}.cls-4{fill:#f2c28d;}.cls-5{fill:#61554e;}.cls-6{fill:#ededed;}.cls-7{fill:#c6c6c6;}.cls-8{fill:#b6312f;}.cls-9{fill:#cf4941;}.cls-10{fill:#ffd2a1;}.cls-11{fill:#7d4e24;}.cls-12{fill:#a18d81;}</style><clipPath id="clip-path"><circle class="cls-1" cx="101.25" cy="101.25" r="101.25"/></clipPath></defs><title>anonymous-user</title><circle class="cls-2" cx="101.25" cy="101.25" r="101.25"/><g class="cls-3"><path class="cls-4" d="M124,135V122.5c-5.92,6.87-10.82,8.55-22,8.55h-.39c-11.23,0-16.12-1.68-22-8.55V135l22.24,21.24Z"/><path class="cls-5" d="M69.82,168l-11.76,1-5-20.44h0L34,153.41a27.46,27.46,0,0,0-18.87,26.08v30.9h66.7L60.07,174.92Z"/><path class="cls-5" d="M169.44,153.41l-19.06-4.87h0l-5,20.44-11.76-1,9.75,7-21.76,35.47h66.69v-30.9A27.46,27.46,0,0,0,169.44,153.41Z"/><polygon class="cls-6" points="86.89 168.98 82.06 163.9 93.06 201.21 95.76 171.22 94.75 162.21 86.89 168.98"/><polygon class="cls-6" points="108.69 162.21 107.68 171.22 110.38 201.21 121.38 163.9 116.55 168.98 108.69 162.21"/><polygon class="cls-7" points="82.06 163.9 86.89 168.98 94.75 162.21 101.72 156.21 79.48 134.97 74.57 138.49 82.06 163.9"/><polygon class="cls-7" points="108.69 162.21 116.55 168.98 121.38 163.9 128.87 138.49 123.96 134.97 101.72 156.21 108.69 162.21"/><polygon class="cls-8" points="101.72 156.21 94.75 162.21 95.76 171.22 107.68 171.22 108.69 162.21 101.72 156.21"/><polygon class="cls-9" points="107.68 171.22 95.76 171.22 93.06 201.21 95.77 210.39 107.67 210.39 110.38 201.21 107.68 171.22"/><path class="cls-10" d="M101.52,131h.39c11.23,0,16.12-1.68,22-8.55A144.56,144.56,0,0,0,133,110.09c3.08-4.52,5.49-11.29,7.31-19.84a4.83,4.83,0,0,0,.69.21,4.37,4.37,0,0,0,2.34-.27c3.28-1.24,4.29-5.89,5.26-11.92,1.2-7.43.86-14.05-3.25-14.72-2.24-.37-4.55,1.1-6.39,3.75v-20a15.85,15.85,0,0,0-15.86-15.86H80.31A15.85,15.85,0,0,0,64.45,47.28v20c-1.84-2.64-4.15-4.12-6.39-3.75-4.12.67-4.81,7.29-3.6,14.72,1,6,2.33,10.68,5.61,11.92a4.37,4.37,0,0,0,2.34.27,4.86,4.86,0,0,0,.69-.21c1.82,8.55,4.23,15.32,7.31,19.84a144.74,144.74,0,0,0,9.07,12.41C85.4,129.36,90.3,131,101.52,131Z"/><path class="cls-11" d="M64.45,67.3v-20A15.85,15.85,0,0,1,80.31,31.42h42.82A15.85,15.85,0,0,1,139,47.28v20c1.84-2.64,4.15-4.12,6.39-3.75l1.3-17.27A33.61,33.61,0,0,0,137.45,22c-8.92-9.46-17.85-12.53-35.69-12.53h-.07C83.84,9.49,74.91,12.56,66,22a33.61,33.61,0,0,0-9.24,24.26l1.31,17.27C60.3,63.18,62.61,64.65,64.45,67.3Z"/><polygon class="cls-12" points="133.63 167.96 145.38 168.98 150.38 148.54 150.38 148.54 128.87 138.49 128.87 138.49 121.38 163.9 110.38 201.21 107.67 210.39 111.2 210.39 117.93 210.39 121.61 210.39 143.37 174.92 133.63 167.96"/><polygon class="cls-12" points="82.06 163.9 74.57 138.49 74.57 138.49 53.06 148.54 53.06 148.54 58.06 168.98 69.81 167.96 60.07 174.92 81.83 210.39 85.51 210.39 92.24 210.39 95.77 210.39 93.06 201.21 82.06 163.9"/><path class="cls-11" d="M145,44.25c-24-.56-51.19,5-72.81-10.55-8.28-4.64-2.32-12.93-2.32-12.93h65Z"/></g></svg>