<?xml version="1.0" encoding="utf-8"?>
<!-- Generator: Adobe Illustrator 21.0.0, SVG Export Plug-In . SVG Version: 6.00 Build 0)  -->
<svg version="1.1" id="Layer_1" xmlns="http://www.w3.org/2000/svg" xmlns:xlink="http://www.w3.org/1999/xlink" x="0px" y="0px"
	 viewBox="0 0 150 150" enable-background="new 0 0 150 150" xml:space="preserve">
<g>
	<path fill="#1C1B1A" d="M142.5,46.4c3.9,9.1,5.8,18.6,5.8,28.5s-1.9,19.4-5.8,28.4s-9.1,16.8-15.6,23.4
		c-6.5,6.6-14.3,11.8-23.4,15.7S85,148.2,75,148.2c-9.9,0-19.4-1.9-28.5-5.8c-9.1-3.9-16.9-9.1-23.4-15.6
		c-6.5-6.5-11.8-14.4-15.6-23.4c-3.9-9.1-5.8-18.5-5.8-28.5s1.9-19.4,5.8-28.5c3.9-9.1,9.1-16.9,15.6-23.4S37.4,11.2,46.5,7.4
		C55.6,3.5,65,1.5,75,1.5s19.4,1.9,28.5,5.8c9.1,3.9,16.9,9.1,23.4,15.6C133.4,29.5,138.6,37.3,142.5,46.4z M126.3,111.1
		c-1.2-8.5-3.6-15.5-7.2-21.1c-3.6-5.6-8.6-8.8-15.1-9.7c-3.7,4-8,7.2-13.1,9.5c-5,2.3-10.4,3.4-16,3.4s-11-1.1-16-3.4
		c-5-2.3-9.4-5.4-13.1-9.5c-6.5,0.9-11.5,4.1-15.1,9.7c-3.6,5.6-6,12.6-7.2,21.1c5.8,8.2,13.2,14.7,22.2,19.4
		c9,4.8,18.7,7.2,29.1,7.2s20.1-2.4,29.1-7.2C113.1,125.8,120.5,119.3,126.3,111.1z M97.2,76.1c6.1-6.1,9.2-13.5,9.2-22.2
		s-3.1-16.1-9.2-22.2c-6.1-6.1-13.5-9.2-22.2-9.2s-16.1,3.1-22.2,9.2c-6.1,6.1-9.2,13.5-9.2,22.2s3.1,16.1,9.2,22.2
		c6.1,6.1,13.5,9.2,22.2,9.2S91.1,82.3,97.2,76.1z"/>
</g>
</svg>
