<svg id="Layer_1" data-name="Layer 1" xmlns="http://www.w3.org/2000/svg" viewBox="0 0 159.04 235.76"><defs><style>.cls-1,.cls-2,.cls-3,.cls-4{fill-rule:evenodd;}.cls-2,.cls-7{fill:#18639b;}.cls-3{fill:#2674b9;}.cls-4{fill:#4e9bd5;}.cls-5{fill:#1d2a38;}.cls-6{fill:#fff;}</style></defs><title>docubot</title><path class="cls-1" d="M83.37,36.87c14.84.8,29.62,5.9,41,15.56,12.35,10.46,18.82,24.52,20.34,40a26.37,26.37,0,0,1,2.18,45.64l-.26.7a32.87,32.87,0,0,1-13.29,15.78,38,38,0,0,1-5.36,2.81L136.07,197c3.69,18.11-10.77,21.53-19.81,18.27V228.4a7.38,7.38,0,0,1-7.36,7.36H94.17a7.38,7.38,0,0,1-7.36-7.36v-7.66c-2.53.25-5,.36-7.2.36s-4.66-.11-7.2-.36v7.66A7.38,7.38,0,0,1,65,235.76H50.33A7.38,7.38,0,0,1,43,228.4V215.3c-9,3.24-23.47-.19-19.78-18.28l8.06-39.54a37.89,37.89,0,0,1-5.56-2.89,32.87,32.87,0,0,1-13.29-15.78l-.27-.7a26.37,26.37,0,0,1,2.18-45.64c1.51-15.51,8-29.57,20.34-40,11.41-9.66,26.18-14.77,41-15.56l1-8.08h5.74l1,8.08Z"/><path class="cls-2" d="M124.69,158.63l8,39.09c1,5,1,11-4.06,13.79a12,12,0,0,1-5,1.37,15.22,15.22,0,0,1-7.29-1.35h0V208.1a19.75,19.75,0,0,0,2.57-4.27,18.25,18.25,0,0,0,1.54-7.41V159.76a39.93,39.93,0,0,0,4.32-1.14Z"/><path class="cls-3" d="M90.29,220.32v8.08a3.9,3.9,0,0,0,3.88,3.88h14.72a3.9,3.9,0,0,0,3.88-3.88V211.64c-5.94,4.91-14.46,7.51-22.47,8.68Z"/><path class="cls-2" d="M102.18,232.27h6.71a3.9,3.9,0,0,0,3.88-3.88V211.64a34.34,34.34,0,0,1-9.22,5.27v11.78a5.18,5.18,0,0,1-1.37,3.58Z"/><path class="cls-3" d="M34.55,158.69l-7.95,39c-1,5-1,11,4.06,13.79a12,12,0,0,0,5,1.37A15.23,15.23,0,0,0,43,211.53V208.1a19.76,19.76,0,0,1-2.57-4.27,18.26,18.26,0,0,1-1.54-7.41V159.8a40.05,40.05,0,0,1-4.3-1.11Z"/><path class="cls-4" d="M37.92,159.6,30,198.41c-.67,3.27-1.12,8.14,2.33,10a8.6,8.6,0,0,0,3.57.94,12.35,12.35,0,0,0,3.19-.23A6.28,6.28,0,0,1,36.82,208c-3.45-2.72-3-9.72-2.33-14.42l4.36-30.74V159.8l-.93-.2Z"/><path class="cls-3" d="M46.45,211.64V228.4a3.9,3.9,0,0,0,3.88,3.88H65a3.9,3.9,0,0,0,3.87-3.88v-8.08c-8-1.17-16.53-3.77-22.47-8.68Z"/><path class="cls-4" d="M49.94,214.1v14.3a.41.41,0,0,0,.39.39h6.58V217.38a39.82,39.82,0,0,1-7-3.28Z"/><path class="cls-3" d="M116.25,160.38v36c0,27.4-73.29,27.4-73.29,0v-36q1.81.17,3.62.17h65.85q1.91,0,3.81-.19Z"/><path class="cls-4" d="M46.45,160.57v35.86c0,12.62,16.4,17.49,24.54,17-8.1-.52-18.13-3.84-18.13-17V160.57H46.45Z"/><path class="cls-2" d="M116.25,160.38v36c0,8.82-7.6,14.8-17.9,17.94a18.22,18.22,0,0,0,4.83-7.31,17.26,17.26,0,0,0,.9-5.61V160.57h8.37q1.91,0,3.81-.19Z"/><path class="cls-3" d="M79.52,40.6c-15.75.06-31.06,5.17-42.39,14.76C23.27,67.11,17.8,83.26,17.8,99.76v22l61.54-4.27a3.72,3.72,0,0,1,.56,0l61.34,4.27v-22c0-16.5-5.47-32.66-19.33-44.4-11.33-9.6-26.64-14.7-42.39-14.76Z"/><path class="cls-4" d="M63.05,46.09A58.71,58.71,0,0,0,39.35,58C26.73,68.67,21.23,83.55,21.23,99.76v21.77l5.77-.4V99.9c0-17,5.77-32.61,19-43.81a59.36,59.36,0,0,1,17.05-10Z"/><path class="cls-2" d="M79.52,40.6q-2.57,0-5.12.2c13.91,1,27.17,6,37.26,14.57C125.52,67.11,131,83.26,131,99.76v9.39c0,4.08-4,7.92-8.58,11.31l18.83,1.31v-22c0-16.5-5.47-32.66-19.33-44.4-11.33-9.6-26.64-14.7-42.39-14.76Z"/><path class="cls-1" d="M52.75,94.92a11.69,11.69,0,1,1-11.69,11.69A11.69,11.69,0,0,1,52.75,94.92Zm53.73,0a11.69,11.69,0,1,1-11.69,11.69,11.69,11.69,0,0,1,11.69-11.69Z"/><path class="cls-2" d="M52.75,96.56c-.28,0-.56,0-.84,0a10,10,0,0,1,0,20c.28,0,.55,0,.84,0a10,10,0,0,0,0-20.09Zm53.73,0c-.28,0-.56,0-.84,0a10,10,0,0,1,0,20q.41,0,.84,0a10,10,0,1,0,0-20.09Z"/><path class="cls-2" d="M145,97.09A22.52,22.52,0,0,1,148.41,132a28.69,28.69,0,0,0,.27-3.92v-2.45h0a3.6,3.6,0,0,0-3.36-3.59l-.24,0V99.76q0-1.34,0-2.68Z"/><path class="cls-3" d="M14,122h0a3.6,3.6,0,0,0-3.56,3.6v2.45a28.75,28.75,0,0,0,.27,3.92A22.52,22.52,0,0,1,14,97.09q0,1.33,0,2.68V122Z"/><rect class="cls-5" x="71.28" y="158.46" width="16.97" height="16.96" rx="1.5" ry="1.5"/><polygon class="cls-5" points="79.38 171.73 79.38 171.51 79.32 171.61 79.26 171.51 79.26 171.73 69.79 180 70.59 217.9 89 217.9 88.85 180 79.38 171.73"/><polygon class="cls-6" points="42.97 160.4 79.76 158.46 67.79 178.14 59.94 169.13 42.97 160.4"/><polygon class="cls-6" points="118.17 160.57 79.76 158.46 91.25 178.14 99.36 167.5 118.17 160.57"/><path class="cls-3" d="M145.08,125.64v2.45a25.75,25.75,0,0,1-1.78,9.41C138.44,149.89,125.37,157,112.44,157H46.59c-12.92,0-26-7.08-30.85-19.47A25.75,25.75,0,0,1,14,128.09v-2.45l65.62-4.56,65.51,4.56Z"/><path class="cls-2" d="M145.08,125.64v2.45a25.75,25.75,0,0,1-1.78,9.41C138.44,149.89,125.37,157,112.44,157H79.57V121.08l65.51,4.56Z"/><path d="M71,.74A.74.74,0,0,1,71.71,0H87.15a.74.74,0,0,1,.74.74V28a.74.74,0,0,1-.74.74H71.71A.74.74,0,0,1,71,28"/><path class="cls-7" d="M79.33,4.66a25.26,25.26,0,0,1-4.8,2.6l-.3.13v2.74H77.5V24.44h5.22V4.56H79.46Z"/></svg>