<svg id="Layer_1" data-name="Layer 1" xmlns="http://www.w3.org/2000/svg" viewBox="0 0 312.21 41.43"><defs><style>.cls-1{fill:#231f20;}</style></defs><title>docubot-logo</title><path class="cls-1" d="M30.6,6.16q5.73,5.24,5.73,14.58T30.74,35.53Q25.15,41,13.69,41H0V.92H14.15Q24.87.92,30.6,6.16ZM24,30q3.29-3.09,3.29-9T24,11.89q-3.3-3.18-10.11-3.18h-5V33.06h5.67Q20.74,33.06,24,30Z"/><path class="cls-1" d="M75.75,35.44a20.58,20.58,0,0,1-15,5.93,20.58,20.58,0,0,1-15-5.93,19.79,19.79,0,0,1-6.07-14.75A19.79,19.79,0,0,1,45.84,5.93,20.58,20.58,0,0,1,60.79,0a20.58,20.58,0,0,1,15,5.93,19.79,19.79,0,0,1,6.07,14.75A19.79,19.79,0,0,1,75.75,35.44Zm-3-14.73a13.1,13.1,0,0,0-3.44-9.14,11.33,11.33,0,0,0-16.9,0,13.1,13.1,0,0,0-3.44,9.14,13,13,0,0,0,3.44,9.11,11.39,11.39,0,0,0,16.9,0A13,13,0,0,0,72.71,20.71Z"/><path class="cls-1" d="M105.78,33.06a13.19,13.19,0,0,0,10.77-5.21l5.73,5.9q-6.82,7.68-16.07,7.68T91,35.58a19.75,19.75,0,0,1-6-14.75A19.94,19.94,0,0,1,91.08,6,20.55,20.55,0,0,1,106,0a21.16,21.16,0,0,1,16.5,7.51l-5.56,6.3a13,13,0,0,0-10.54-5.27,12.29,12.29,0,0,0-8.62,3.29,11.48,11.48,0,0,0-3.58,8.88,12.12,12.12,0,0,0,3.38,9A11.16,11.16,0,0,0,105.78,33.06Z"/><path class="cls-1" d="M137.92,30.63a7.32,7.32,0,0,0,6,2.78,7.24,7.24,0,0,0,6-2.78A11.9,11.9,0,0,0,152.13,23V.92h8.94v22.4q0,8.71-4.81,13.38a18.58,18.58,0,0,1-24.67,0q-4.84-4.7-4.84-13.35V.92h8.94V23A11.78,11.78,0,0,0,137.92,30.63Z"/><path class="cls-1" d="M185.88,41H168.35V.92h15.59a22.5,22.5,0,0,1,7,1,10.09,10.09,0,0,1,4.44,2.64,10.37,10.37,0,0,1,2.69,7q0,4.7-3,7a11,11,0,0,1-1.43,1q-.4.2-1.43.66a10.51,10.51,0,0,1,5.93,3.35,9.34,9.34,0,0,1,2.21,6.33,10.77,10.77,0,0,1-2.87,7.39Q194.13,41,185.88,41Zm-8.6-23.84h4.24a14.34,14.34,0,0,0,5.53-.8q1.8-.8,1.8-3.47T187.2,9.34a13.17,13.17,0,0,0-5.62-.86h-4.3Zm0,16.27h6.13a13.54,13.54,0,0,0,5.76-.95q1.92-.94,1.92-3.72t-2-3.67a17.43,17.43,0,0,0-6.5-.89h-5.27Z"/><path class="cls-1" d="M239.51,35.44a21.82,21.82,0,0,1-29.91,0,19.79,19.79,0,0,1-6.07-14.75A19.78,19.78,0,0,1,209.6,5.93a21.82,21.82,0,0,1,29.91,0,19.79,19.79,0,0,1,6.07,14.75A19.79,19.79,0,0,1,239.51,35.44Zm-3-14.73A13.11,13.11,0,0,0,233,11.57a11.34,11.34,0,0,0-16.9,0,13.11,13.11,0,0,0-3.44,9.14,13,13,0,0,0,3.44,9.11,11.39,11.39,0,0,0,16.9,0A13,13,0,0,0,236.48,20.71Z"/><path class="cls-1" d="M267,8.65V41h-8.94V8.65H246.73V.92h31.63V8.65Z"/><path class="cls-1" d="M291.25,3.21V14.53H289V3.21h-4.06V1.14h10.39V3.21Z"/><path class="cls-1" d="M299.35,14.53h-2.26V1.14h3.53l4,8.41,4-8.41h3.51v13.4H310V4.07l-4.68,9.29H304l-4.66-9.29Z"/></svg>