<?xml version="1.0" encoding="UTF-8" standalone="no"?>
<svg width="81px" height="82px" viewBox="0 0 81 82" version="1.1" xmlns="http://www.w3.org/2000/svg" xmlns:xlink="http://www.w3.org/1999/xlink">
    <!-- Generator: Sketch 39.1 (31720) - http://www.bohemiancoding.com/sketch -->
    <title>Group 168</title>
    <desc>Created with Sketch.</desc>
    <defs>
        <path d="M80.8881,40.7415 C80.8881,63.2424 62.7807,81.483 40.444,81.483 C18.1074,81.483 0,63.2424 0,40.7415 C0,18.2405 18.1074,0 40.444,0 C62.7807,0 80.8881,18.2405 80.8881,40.7415 L80.8881,40.7415 Z" id="path-1"></path>
        <path d="M50.6957951,59.015171 C44.7402933,62.4923875 37.8229202,64.483 30.444,64.483 C23.0005712,64.483 16.026788,62.4574123 10.0362219,58.9235867 L11.9099,49.6852 C11.173,49.3746 10.4623,49.0051 9.7898,48.5781 C7.55302,47.1605 5.73064,45.1187 4.72414,42.5369 C4.68945,42.4476 4.6559,42.3577 4.62311,42.2673 C1.84228,40.4713 8e-05,37.3362 8e-05,33.7698 C8e-05,29.8589 2.21552,26.4664 5.45462,24.7895 C6.03221,18.8517 8.5004,13.4671 13.2081,9.4612 C17.557,5.7601 23.1888,3.8056 28.8485,3.5007 L29.2221,0.4054 L31.4101,0.4054 L31.7837,3.5007 C37.443,3.8056 43.0752,5.7601 47.4238,9.4612 C52.1318,13.4671 54.6,18.8517 55.1776,24.7895 C58.4037343,26.4598939 60.6149899,29.832601 60.6321,33.7243023 L60.6321,33.815299 C60.6165034,37.362854 58.7777684,40.4789415 56.0088,42.2673 C55.9763,42.3577 55.9428,42.4476 55.9081,42.5369 C54.9016,45.1187 53.0788,47.1605 50.8424,48.5781 C50.1924,48.9902 49.5073,49.3494 48.797,49.6534 L50.6957951,59.015171 L50.6957951,59.015171 L50.6957951,59.015171 Z" id="path-3"></path>
        <path d="M4.478092,9.69814348 C3.31534207,10.3240504 2.11867994,10.894398 0.8916,11.4056662 L0.8916,0.5701 L0.8913,0.5625 C1.4475,0.4483 1.9976,0.3028 2.5371,0.1274 L4.478092,9.69814348 L4.478092,9.69814348 L4.478092,9.69814348 Z" id="path-5"></path>
        <path d="M3.8111,11.3278893 C2.59364251,10.8134379 1.4064525,10.2407126 0.252968623,9.61317733 L2.1717,0.1521 C2.7097,0.324 3.2571,0.4657 3.8111,0.5768 L3.8111,11.3278893 L3.8111,11.3278893 L3.8111,11.3278893 Z" id="path-7"></path>
        <path d="M1.53871525,10.7639771 C1.18279898,10.598785 0.829671352,10.428538 0.479423036,10.2533275 L2.4572,0.5014 C2.575,0.5282 2.6928,0.5531 2.811,0.5768 L2.811,1.7555 L1.53871525,10.7639771 L1.53871525,10.7639771 L1.53871525,10.7639771 Z" id="path-9"></path>
        <path d="M28.3216,12.0212984 C23.99344,13.6139724 19.3194672,14.483 14.444,14.483 C9.49880292,14.483 4.76090202,13.5889286 0.3809,11.9524965 L0.3809,0.8073 C0.8407,0.8498 1.3017,0.872 1.7626,0.872 L26.8694,0.872 C27.3536,0.872 27.8386,0.8479 28.3216,0.8004 L28.3216,12.0212984 L28.3216,12.0212984 Z" id="path-11"></path>
        <path d="M3.1552,13.1529273 C2.32949865,12.9347798 1.51410242,12.6909981 0.7099,12.4224774 L0.7099,0.8716 L0.7625,0.872 L3.1552,0.872 L3.1552,13.1529273 L3.1552,13.1529273 L3.1552,13.1529273 Z" id="path-13"></path>
        <path d="M5.3216,12.0212984 C3.81402298,12.5760558 2.26449002,13.0430163 0.6791,13.4160363 L0.6791,0.872 L3.8694,0.872 C4.3536,0.872 4.8386,0.8479 5.3216,0.8004 L5.3216,12.0212984 L5.3216,12.0212984 Z" id="path-15"></path>
        <path d="M24.3161,0.93 C18.3103,0.953 12.4737,2.9087 8.1553,6.5838 C2.8715,11.0802 0.78572,17.2666 0.78572,23.5859 L0.78572,32.0133 L24.2463,30.3766 C24.3191,30.372 24.3904,30.3727 24.4606,30.3789 L47.8465,32.0129 L47.8465,23.5859 C47.8465,17.2666 45.7606,11.0802 40.4769,6.5838 C36.1585,2.9087 30.3215,0.953 24.3161,0.93 L24.3161,0.93 Z" id="path-17"></path>
        <path d="M16.0392,0.0306 C12.7349,0.865 9.6037,2.3711 7.0009,4.5861 C2.1918,8.6785 0.0938,14.3755 0.0938,20.5861 L0.0938,28.9219 L2.2944,28.7683 L2.2944,20.6397 C2.2944,14.1274 4.495,8.1531 9.5378,3.8615 C11.4711,2.2164 13.6823,0.9439 16.0392,0.0306 L16.0392,0.0306 Z" id="path-19"></path>
        <path d="M2.3161,0.93 C1.6622,0.9323 1.0103,0.958 0.3622,1.0059 C5.6673,1.3991 10.7211,3.3092 14.5691,6.5838 C19.8524,11.0802 21.9386,17.2662 21.9386,23.5859 L21.9386,27.1809 C21.9386,28.7441 20.4159,30.215 18.6694,31.5116 L25.8465,32.0129 L25.8465,23.5859 C25.8465,17.2662 23.7606,11.0802 18.4769,6.5838 C14.1585,2.9091 8.3215,0.953 2.3161,0.93 L2.3161,0.93 Z" id="path-21"></path>
        <path d="M25.5934,0.7305 C28.0548,0.7305 30.0506,2.7352 30.0506,5.2071 C30.0506,7.6794 28.0548,9.684 25.5934,9.684 C23.1321,9.684 21.1362,7.6794 21.1362,5.2071 C21.1362,2.7352 23.1321,0.7305 25.5934,0.7305 L25.5934,0.7305 Z M5.1093,0.7305 C7.5702,0.7305 9.5661,2.7352 9.5661,5.2071 C9.5661,7.6794 7.5702,9.684 5.1093,9.684 C2.6479,9.684 0.6521,7.6794 0.6521,5.2071 C0.6521,2.7352 2.6479,0.7305 5.1093,0.7305 L5.1093,0.7305 Z" id="path-23"></path>
        <path d="M21.5934,0.3612 C21.4859,0.3612 21.3796,0.3658 21.2743,0.3746 C23.2397,0.5374 24.7845,2.1913 24.7845,4.2071 C24.7845,6.2237 23.2397,7.8772 21.2743,8.0399 C21.3796,8.0487 21.4859,8.0533 21.5934,8.0533 C23.7079,8.0533 25.4227,6.3313 25.4227,4.2071 C25.4227,2.0833 23.7079,0.3612 21.5934,0.3612 L21.5934,0.3612 Z M1.1093,0.3612 C1.0014,0.3612 0.8954,0.3658 0.7902,0.3746 C2.7551,0.5374 4.3003,2.1913 4.3003,4.2071 C4.3003,6.2237 2.7551,7.8772 0.7902,8.0399 C0.8954,8.0487 1.0014,8.0533 1.1093,8.0533 C3.2237,8.0533 4.9382,6.3313 4.9382,4.2071 C4.9382,2.0833 3.2237,0.3612 1.1093,0.3612 L1.1093,0.3612 Z" id="path-25"></path>
        <path d="M0.2937,0.5605 C2.6266,2.1026 4.1672,4.7557 4.1672,7.7698 C4.1672,10.1865 3.1763,12.3712 1.5808,13.9374 C1.6502,13.435 1.6849,12.9333 1.6849,12.4344 L1.6849,11.4958 L1.6826,11.4958 C1.6834,10.7766 1.1279,10.1704 0.4028,10.1218 L0.3116,10.1153 L0.3116,1.5857 C0.3116,1.2426 0.3055,0.901 0.2937,0.5605 L0.2937,0.5605 Z" id="path-27"></path>
        <path d="M4.32038,10.1154 L4.30475,10.1165 C3.55331,10.1249 2.94712,10.7395 2.94712,11.4959 L2.94712,12.4344 C2.94712,12.933 2.98219,13.4351 3.05082,13.9371 C1.45567,12.3713 0.46518,10.1866 0.46518,7.7698 C0.46518,4.7557 2.00543,2.1027 4.3383,0.5606 C4.32686,0.9011 4.32038,1.2426 4.32038,1.5858 L4.32038,10.1154 L4.32038,10.1154 Z" id="path-29"></path>
        <path d="M6.0728,6.5585 L0.7487,6.5585 C0.4338,6.5585 0.1764,6.3 0.1764,5.9837 L0.1764,0.6371 C0.1764,0.3212 0.4338,0.0627 0.7483,0.0627 L6.0728,0.0627 C6.3877,0.0627 6.6451,0.3212 6.6451,0.6375 L6.6451,5.9837 C6.6451,6.3 6.3877,6.5585 6.0728,6.5585 L6.0728,6.5585 Z" id="path-31"></path>
        <path d="M7.89753192,9.33654974 C6.75913294,9.43352496 5.60730216,9.483 4.444,9.483 C3.19310725,9.483 1.95547819,9.42579353 0.733550302,9.31383601 L0.6076,3.3123 L4.2192,0.1439 L4.2192,0.0592 L4.2413,0.1006 L4.2619,0.0592 L4.2619,0.1439 L7.8735,3.3123 L7.89753192,9.33654974 L7.89753192,9.33654974 L7.89753192,9.33654974 Z" id="path-33"></path>
        <polygon id="path-35" points="0.3809 0.8071 14.4098 0.0627 9.8443 7.6005 6.853 4.1494"></polygon>
        <polygon id="path-37" points="15.0506 0.8716 0.4098 0.0624 4.7877 7.6002 7.8812 3.5261"></polygon>
        <path d="M50.3116,2.4958 L50.3116,3.4344 C50.3116,4.6694 50.0794,5.886 49.6311,7.036 C47.7812,11.7817 42.7972,14.4926 37.8695,14.4926 L12.7627,14.4926 C7.835,14.4926 2.85093,11.7817 1.00072,7.036 C0.55237,5.886 0.32057,4.6694 0.32057,3.4344 L0.32057,2.4958 L25.3378,0.7508 L50.3116,2.4958 L50.3116,2.4958 Z" id="path-39"></path>
        <path d="M25.3116,2.4958 L25.3116,3.4344 C25.3116,4.6694 25.0794,5.886 24.6311,7.036 C22.7812,11.7817 17.7972,14.4926 12.8695,14.4926 L0.3378,14.4926 L0.3378,0.7508 L25.3116,2.4958 L25.3116,2.4958 Z" id="path-41"></path>
        <path d="M6.23340875,0.3829 L0.330686224,0.3829 C0.179327484,0.386932786 0.0569,0.512423545 0.0569,0.6654 L0.0569,11.1231 C0.0569,11.2786 0.1834,11.4053 0.3382,11.4053 L6.2259,11.4053 C6.3806,11.4053 6.5068,11.2786 6.5068,11.1231 L6.5068,0.6654 C6.5068,0.512423545 6.38466286,0.386932786 6.23340875,0.3829 L6.23340875,0.3829 L6.23340875,0.3829 Z" id="path-43"></path>
        <path d="M2.2447,0.1657 C1.799,0.4931 1.2172,0.8102 0.414,1.1629 L0.2996,1.2123 L0.2996,2.2612 L1.5451,2.2612 L1.5451,7.7414 L3.5341,7.7414 L3.5341,0.129 L2.295,0.129 L2.2447,0.1657 L2.2447,0.1657 Z" id="path-45"></path>
    </defs>
    <g id="Page-1" stroke="none" stroke-width="1" fill="none" fill-rule="evenodd">
        <g id="WP-Chat" transform="translate(-55.000000, -430.000000)">
            <g id="Group-168" transform="translate(55.000000, 430.000000)">
                <g id="Group-101">
                    <mask id="mask-2" fill="white">
                        <use xlink:href="#path-1"></use>
                    </mask>
                    <g id="Clip-100"></g>
                    <polygon id="Fill-99" fill="#EFEFF4" mask="url(#mask-2)" points="-5 -5 85.8881 -5 85.8881 86.483 -5 86.483"></polygon>
                </g>
                <g id="Group-104" transform="translate(10.000000, 17.000000)">
                    <mask id="mask-4" fill="white">
                        <use xlink:href="#path-3"></use>
                    </mask>
                    <g id="Clip-103"></g>
                    <polygon id="Fill-102" fill="#000000" mask="url(#mask-4)" points="-4.99992 -4.5946 65.6322 -4.5946 65.6322 84.6648 -4.99992 84.6648"></polygon>
                </g>
                <g id="Group-107" transform="translate(55.000000, 67.000000)">
                    <mask id="mask-6" fill="white">
                        <use xlink:href="#path-5"></use>
                    </mask>
                    <g id="Clip-106"></g>
                    <polygon id="Fill-105" fill="#18639B" mask="url(#mask-6)" points="-5.6784 -4.8726 10.7714 -4.8726 10.7714 25.9105 -5.6784 25.9105"></polygon>
                </g>
                <g id="Group-110" transform="translate(21.000000, 67.000000)">
                    <mask id="mask-8" fill="white">
                        <use xlink:href="#path-7"></use>
                    </mask>
                    <g id="Clip-109"></g>
                    <polygon id="Fill-108" fill="#2674B9" mask="url(#mask-8)" points="-6.05746 -4.8479 10.3807 -4.8479 10.3807 25.9103 -6.05746 25.9103"></polygon>
                </g>
                <g id="Group-113" transform="translate(22.000000, 67.000000)">
                    <mask id="mask-10" fill="white">
                        <use xlink:href="#path-9"></use>
                    </mask>
                    <g id="Clip-112"></g>
                    <polygon id="Fill-111" fill="#4E9BD5" mask="url(#mask-10)" points="-5.73422 -4.4986 7.9089 -4.4986 7.9089 24.5755 -5.73422 24.5755"></polygon>
                </g>
                <g id="Group-116" transform="translate(26.000000, 67.000000)">
                    <mask id="mask-12" fill="white">
                        <use xlink:href="#path-11"></use>
                    </mask>
                    <g id="Clip-115"></g>
                    <polygon id="Fill-114" fill="#2674B9" mask="url(#mask-12)" points="-4.6191 -4.1996 33.3216 -4.1996 33.3216 27.4727 -4.6191 27.4727"></polygon>
                </g>
                <g id="Group-119" transform="translate(27.000000, 67.000000)">
                    <mask id="mask-14" fill="white">
                        <use xlink:href="#path-13"></use>
                    </mask>
                    <g id="Clip-118"></g>
                    <polygon id="Fill-117" fill="#4E9BD5" mask="url(#mask-14)" points="-4.2901 -4.1284 15.0665 -4.1284 15.0665 26.1125 -4.2901 26.1125"></polygon>
                </g>
                <g id="Group-122" transform="translate(49.000000, 67.000000)">
                    <mask id="mask-16" fill="white">
                        <use xlink:href="#path-15"></use>
                    </mask>
                    <g id="Clip-121"></g>
                    <polygon id="Fill-120" fill="#18639B" mask="url(#mask-16)" points="-6.5031 -4.1996 10.3216 -4.1996 10.3216 26.473 -6.5031 26.473"></polygon>
                </g>
                <g id="Group-125" transform="translate(16.000000, 21.000000)">
                    <mask id="mask-18" fill="white">
                        <use xlink:href="#path-17"></use>
                    </mask>
                    <g id="Clip-124"></g>
                    <polygon id="Fill-123" fill="#2674B9" mask="url(#mask-18)" points="-4.21428 -4.07 52.8465 -4.07 52.8465 37.0133 -4.21428 37.0133"></polygon>
                </g>
                <g id="Group-128" transform="translate(18.000000, 24.000000)">
                    <mask id="mask-20" fill="white">
                        <use xlink:href="#path-19"></use>
                    </mask>
                    <g id="Clip-127"></g>
                    <polygon id="Fill-126" fill="#4E9BD5" mask="url(#mask-20)" points="-4.90618 -4.9694 21.0392 -4.9694 21.0392 33.9219 -4.90618 33.9219"></polygon>
                </g>
                <g id="Group-131" transform="translate(38.000000, 21.000000)">
                    <mask id="mask-22" fill="white">
                        <use xlink:href="#path-21"></use>
                    </mask>
                    <g id="Clip-130"></g>
                    <polygon id="Fill-129" fill="#18639B" mask="url(#mask-22)" points="-4.6378 -4.07 30.8465 -4.07 30.8465 37.0129 -4.6378 37.0129"></polygon>
                </g>
                <g id="Group-134" transform="translate(25.000000, 42.000000)">
                    <mask id="mask-24" fill="white">
                        <use xlink:href="#path-23"></use>
                    </mask>
                    <g id="Clip-133"></g>
                    <polygon id="Fill-132" fill="#000000" mask="url(#mask-24)" points="-4.3479 -4.2695 35.0506 -4.2695 35.0506 14.684 -4.3479 14.684"></polygon>
                </g>
                <g id="Group-137" transform="translate(29.000000, 43.000000)">
                    <mask id="mask-26" fill="white">
                        <use xlink:href="#path-25"></use>
                    </mask>
                    <g id="Clip-136"></g>
                    <polygon id="Fill-135" fill="#18639B" mask="url(#mask-26)" points="-4.2098 -4.6388 30.4227 -4.6388 30.4227 13.0533 -4.2098 13.0533"></polygon>
                </g>
                <g id="Group-140" transform="translate(65.000000, 43.000000)">
                    <mask id="mask-28" fill="white">
                        <use xlink:href="#path-27"></use>
                    </mask>
                    <g id="Clip-139"></g>
                    <polygon id="Fill-138" fill="#18639B" mask="url(#mask-28)" points="-4.7063 -4.4395 9.1672 -4.4395 9.1672 18.9374 -4.7063 18.9374"></polygon>
                </g>
                <g id="Group-143" transform="translate(11.000000, 43.000000)">
                    <mask id="mask-30" fill="white">
                        <use xlink:href="#path-29"></use>
                    </mask>
                    <g id="Clip-142"></g>
                    <polygon id="Fill-141" fill="#2674B9" mask="url(#mask-30)" points="-4.53482 -4.4394 9.3383 -4.4394 9.3383 18.9371 -4.53482 18.9371"></polygon>
                </g>
                <g id="Group-146" transform="translate(37.000000, 67.000000)">
                    <mask id="mask-32" fill="white">
                        <use xlink:href="#path-31"></use>
                    </mask>
                    <g id="Clip-145"></g>
                    <polygon id="Fill-144" fill="#1D2A38" mask="url(#mask-32)" points="-4.8236 -4.9373 11.6451 -4.9373 11.6451 11.5585 -4.8236 11.5585"></polygon>
                </g>
                <g id="Group-149" transform="translate(36.000000, 72.000000)">
                    <mask id="mask-34" fill="white">
                        <use xlink:href="#path-33"></use>
                    </mask>
                    <g id="Clip-148"></g>
                    <polygon id="Fill-147" fill="#1D2A38" mask="url(#mask-34)" points="-4.3924 -4.9408 12.9314 -4.9408 12.9314 22.8265 -4.3924 22.8265"></polygon>
                </g>
                <g id="Group-152" transform="translate(26.000000, 67.000000)">
                    <mask id="mask-36" fill="white">
                        <use xlink:href="#path-35"></use>
                    </mask>
                    <g id="Clip-151"></g>
                    <polygon id="Fill-150" fill="#FFFFFF" mask="url(#mask-36)" points="-4.6191 -4.9373 19.4098 -4.9373 19.4098 12.6005 -4.6191 12.6005"></polygon>
                </g>
                <g id="Group-155" transform="translate(40.000000, 67.000000)">
                    <mask id="mask-38" fill="white">
                        <use xlink:href="#path-37"></use>
                    </mask>
                    <g id="Clip-154"></g>
                    <polygon id="Fill-153" fill="#FFFFFF" mask="url(#mask-38)" points="-4.5902 -4.9376 20.0506 -4.9376 20.0506 12.6002 -4.5902 12.6002"></polygon>
                </g>
                <g id="Group-158" transform="translate(15.000000, 52.000000)">
                    <mask id="mask-40" fill="white">
                        <use xlink:href="#path-39"></use>
                    </mask>
                    <g id="Clip-157"></g>
                    <polygon id="Fill-156" fill="#2674B9" mask="url(#mask-40)" points="-4.67943 -4.2492 55.3116 -4.2492 55.3116 19.4926 -4.67943 19.4926"></polygon>
                </g>
                <g id="Group-161" transform="translate(40.000000, 52.000000)">
                    <mask id="mask-42" fill="white">
                        <use xlink:href="#path-41"></use>
                    </mask>
                    <g id="Clip-160"></g>
                    <polygon id="Fill-159" fill="#18639B" mask="url(#mask-42)" points="-4.6622 -4.2492 30.3116 -4.2492 30.3116 19.4926 -4.6622 19.4926"></polygon>
                </g>
                <g id="Group-164" transform="translate(37.000000, 6.000000)">
                    <mask id="mask-44" fill="white">
                        <use xlink:href="#path-43"></use>
                    </mask>
                    <g id="Clip-163"></g>
                    <polygon id="Fill-162" fill="#000000" mask="url(#mask-44)" points="-4.9431 -4.6172 11.5068 -4.6172 11.5068 16.4053 -4.9431 16.4053"></polygon>
                </g>
                <g id="Group-167" transform="translate(38.000000, 8.000000)">
                    <mask id="mask-46" fill="white">
                        <use xlink:href="#path-45"></use>
                    </mask>
                    <g id="Clip-166"></g>
                    <polygon id="Fill-165" fill="#18639B" mask="url(#mask-46)" points="-4.7004 -4.871 8.5341 -4.871 8.5341 12.7414 -4.7004 12.7414"></polygon>
                </g>
            </g>
        </g>
    </g>
</svg>